<svg xmlns="http://www.w3.org/2000/svg" viewBox="0 0 846 864.81"><defs><style>.cls-1,.cls-10,.cls-11,.cls-2,.cls-3,.cls-4{fill:none;}.cls-1,.cls-11,.cls-13,.cls-15,.cls-20,.cls-21,.cls-22,.cls-24,.cls-26,.cls-28,.cls-3,.cls-30,.cls-32,.cls-5,.cls-6,.cls-7{stroke:#000;}.cls-1,.cls-10,.cls-11,.cls-13,.cls-15,.cls-21,.cls-22,.cls-24,.cls-26,.cls-28,.cls-3,.cls-30,.cls-32,.cls-4,.cls-6,.cls-7{stroke-miterlimit:10;}.cls-1{stroke-width:15px;}.cls-2,.cls-4{stroke:#dbb42c;}.cls-2,.cls-20,.cls-5{stroke-linejoin:round;}.cls-2,.cls-20{stroke-width:4.47px;}.cls-3{stroke-width:10.73px;}.cls-4{stroke-width:4.29px;}.cls-5,.cls-6,.cls-9{fill:#097e40;}.cls-5{stroke-linecap:round;}.cls-11,.cls-13,.cls-5{stroke-width:5px;}.cls-7,.cls-8{fill:#79b93d;}.cls-10{stroke:#165925;stroke-width:2.5px;}.cls-12,.cls-14,.cls-16,.cls-35,.cls-36,.cls-37,.cls-38{fill:#fff;}.cls-13,.cls-34{fill:#9a09cb;}.cls-14,.cls-19{opacity:0.5;}.cls-15{stroke-width:5.57px;}.cls-16{opacity:0.15;}.cls-17{opacity:0.2;}.cls-18,.cls-20{fill:#dbb42c;}.cls-21{fill:#730baa;stroke-width:3.51px;}.cls-22{fill:#62ad31;stroke-width:3.1px;}.cls-23{fill:#6acc36;}.cls-24{fill:#32b6cc;stroke-width:4.1px;}.cls-25{fill:#38cdff;}.cls-26{fill:#dbaa31;stroke-width:3.1px;}.cls-27{fill:#fecc33;}.cls-28{fill:#aa0c0c;stroke-width:2.56px;}.cls-29{fill:#cd0c0c;}.cls-30{fill:#c63d0e;stroke-width:2.56px;}.cls-31{fill:#ff670c;}.cls-32{fill:#0b0b7a;stroke-width:4.1px;}.cls-33{fill:#0e0b9a;}.cls-35{opacity:0.33;}.cls-36{opacity:0.35;}.cls-37{opacity:0.4;}.cls-38{opacity:0.38;}</style></defs><title>Risorsa 4Foglia marijuan</title><g id="Livello_2" data-name="Livello 2"><g id="cerchio_oro"><circle class="cls-1" cx="423" cy="441.81" r="415.5"/><circle class="cls-2" cx="423" cy="441.81" r="415.5"/></g><g id="Fiore_Circle"><g id="Livello_37" data-name="Livello 37"><circle class="cls-3" cx="346.03" cy="255.99" r="201.13"/><circle class="cls-3" cx="237.18" cy="364.84" r="201.13"/><circle class="cls-3" cx="237.18" cy="518.78" r="201.13"/><circle class="cls-3" cx="346.03" cy="627.63" r="201.13"/><circle class="cls-3" cx="499.97" cy="627.63" r="201.13"/><circle class="cls-3" cx="608.82" cy="518.78" r="201.13"/><circle class="cls-3" cx="608.82" cy="364.84" r="201.13"/><circle class="cls-3" cx="499.97" cy="255.99" r="201.13"/></g><g id="Cerchi_Background"><circle class="cls-4" cx="346.03" cy="255.99" r="201.13"/><circle class="cls-4" cx="237.18" cy="364.84" r="201.13"/><circle class="cls-4" cx="237.18" cy="518.78" r="201.13"/><circle class="cls-4" cx="346.03" cy="627.63" r="201.13"/><circle class="cls-4" cx="499.97" cy="627.63" r="201.13"/><circle class="cls-4" cx="608.82" cy="518.78" r="201.13"/><circle class="cls-4" cx="608.82" cy="364.84" r="201.13"/><circle class="cls-4" cx="499.97" cy="255.99" r="201.13"/></g></g><g id="GAMBO"><path class="cls-5" d="M403,521.81c.75-1,7.75-10,20-10,1.25,0,12.65.2,20,10a982.88,982.88,0,0,0,0,285,42.5,42.5,0,0,1-40,0,982,982,0,0,0,10-115A985,985,0,0,0,403,521.81Z"/></g><g id="Foglia_Layeer"><g id="BASE_2"><path class="cls-6" d="M401.46,69.11c-1.75,4.53-9.53,24.7-19.26,51-6.47,17.5-8.86,24.38-11.1,34.25a187.14,187.14,0,0,0-4.76,39.6c0,12.8,1.54,24,12.15,62.57,10,36.5,11.33,36.22,17.95,61.51,1.82,6.95,3.92,15.37,14.26,63.63,5.1,23.82,9.26,43.59,12.16,57.48V8.53C414.5,34.33,406.91,54.91,401.46,69.11Z"/><path class="cls-7" d="M474.9,154.38c-2.24-9.87-4.63-16.75-11.1-34.25-9.73-26.32-17.51-46.49-19.26-51-5.48-14.27-13.12-35-21.54-61l-.14.41V439.17l.12.55v.21l0-.11,0,.11v-.21c2.91-13.92,7.12-33.9,12.28-58,10.34-48.26,12.44-56.68,14.26-63.63,6.62-25.29,7.91-25,17.95-61.51C478.12,218,479.7,206.78,479.66,194A187.14,187.14,0,0,0,474.9,154.38Z"/><path class="cls-8" d="M422.83,440.07c-10.12,6.61-24.65,16.1-42.27,27.5-35.21,22.79-41.54,26.59-46.81,29.67C314.57,508.46,314,507.53,286,523.42c-29.54,16.79-37.24,22.59-44.91,30.31a158.47,158.47,0,0,0-21,26.66c-4.58,7.29-7.28,12.86-13.91,27.26-10,21.67-17.42,38.47-19.09,42.25-5.28,11.87-13.15,28.92-23.71,49.6L422.9,440l.05-.08Z"/><path class="cls-9" d="M211.26,675.81c3.77-1.67,20.57-9.12,42.24-19.09,14.4-6.63,20-9.33,27.26-13.91a158.47,158.47,0,0,0,26.66-20.95c7.72-7.67,13.52-15.37,30.31-44.91,15.9-28,15-28.58,26.18-47.76,3.08-5.27,6.88-11.6,29.68-46.82,11.39-17.61,20.88-32.14,27.49-42.26l.13-.12-.08.05L161.65,699.52C182.33,689,199.38,681.09,211.26,675.81Z"/><path class="cls-7" d="M423,439.77l.05,0h0l-.1-.11c-6.62-10.11-16.1-24.65-27.5-42.26-22.79-35.22-26.59-41.54-29.67-46.81-11.23-19.18-10.29-19.79-26.19-47.77C322.76,273.32,317,265.62,309.23,258A158,158,0,0,0,282.57,237c-7.28-4.58-12.85-7.28-27.25-13.91-21.68-10-38.48-17.42-42.25-19.1-11.88-5.28-28.92-13.14-49.61-23.71L423,439.77Z"/><path class="cls-6" d="M423,439.82l0-.05L163.46,180.28C174,201,181.89,218,187.17,229.89c1.68,3.77,9.12,20.58,19.1,42.25,6.63,14.4,9.32,20,13.91,27.26a159.1,159.1,0,0,0,20.94,26.66c7.67,7.71,15.38,13.52,44.91,30.3,28,15.9,28.58,15,47.77,26.19,5.26,3.08,11.59,6.88,46.81,29.67,17.61,11.4,32.15,20.88,42.26,27.5l.13.12,0,0Z"/><path class="cls-8" d="M639.78,607.65c-6.63-14.4-9.33-20-13.91-27.26a158.47,158.47,0,0,0-21-26.66c-7.67-7.72-15.37-13.52-44.91-30.31-28-15.89-28.58-15-47.76-26.18-5.27-3.08-11.6-6.88-46.81-29.67-17.5-11.33-31.95-20.76-42.06-27.36L682.48,699.3c-10.51-20.59-18.34-37.57-23.61-49.4C657.2,646.12,649.75,629.32,639.78,607.65Z"/><path class="cls-9" d="M423.17,439.1l-.12-.12.05.07L423,439l.13.13c6.61,10.11,16.1,24.65,27.49,42.26,22.8,35.22,26.6,41.54,29.68,46.81C491.54,547.38,490.6,548,506.5,576c16.79,29.53,22.59,37.23,30.31,44.9a158.47,158.47,0,0,0,26.66,21c7.28,4.58,12.86,7.28,27.26,13.91,21.67,10,38.47,17.42,42.24,19.1,11.88,5.28,28.93,13.14,49.61,23.71a1.24,1.24,0,0,0-.1-.2l-259.1-259.1Z"/><path class="cls-9" d="M464.36,411c35.21-22.8,41.54-26.6,46.81-29.68,19.18-11.22,19.79-10.28,47.76-26.18,29.54-16.79,37.24-22.59,44.91-30.31a158.47,158.47,0,0,0,20.95-26.66c4.58-7.28,7.28-12.86,13.91-27.26,10-21.67,17.42-38.47,19.09-42.24,5.27-11.84,13.1-28.82,23.61-49.41L422.3,438.4C432.41,431.79,446.86,422.36,464.36,411Z"/><path class="cls-8" d="M422.42,439.12,681.52,180c0-.07.07-.14.1-.2-20.68,10.56-37.73,18.43-49.61,23.71-3.77,1.67-20.57,9.11-42.24,19.09-14.4,6.63-20,9.33-27.26,13.91a158.47,158.47,0,0,0-26.66,21c-7.72,7.67-13.52,15.37-30.31,44.91-15.9,28-15,28.58-26.18,47.76-3.08,5.27-6.88,11.6-29.68,46.81-11.4,17.61-20.88,32.15-27.49,42.26l-.11.11h0l.05,0,0,.05h0v0h0l.11-.12Z"/><path class="cls-8" d="M422.85,439.91H423c-11.92-2.5-29.05-6.1-49.74-10.53-41.36-8.86-48.59-10.66-54.54-12.22-21.68-5.68-21.44-6.78-52.73-15.39-33-9.09-42.66-10.45-53.63-10.41a159.72,159.72,0,0,0-34,4.07c-8.46,1.93-14.36,4-29.36,9.52-22.56,8.34-39.85,15-43.74,16.51-12.23,4.7-30,11.25-52.28,18.47H422.94Z"/><path class="cls-9" d="M423,439.19H53.09c22.28,7.21,40.05,13.76,52.28,18.47,3.89,1.49,21.18,8.17,43.74,16.5,15,5.55,20.9,7.6,29.36,9.52a160.75,160.75,0,0,0,33.95,4.08c11,0,20.6-1.32,53.63-10.41,31.29-8.62,31.05-9.72,52.73-15.39,6-1.56,13.18-3.37,54.54-12.22,20.69-4.43,37.82-8,49.74-10.53h-.12Z"/><path class="cls-8" d="M423.06,439.93H793c-22.28-7.22-40-13.77-52.28-18.47C736.83,420,719.54,413.29,697,405c-15-5.54-20.9-7.59-29.36-9.52a159.72,159.72,0,0,0-34-4.07c-11,0-20.6,1.32-53.63,10.41-31.29,8.61-31,9.71-52.73,15.39-5.95,1.56-13.18,3.36-54.54,12.22-20.69,4.43-37.82,8-49.74,10.53h.12Z"/><path class="cls-9" d="M423.06,439h0c11.92,2.5,29.05,6.1,49.74,10.53,41.36,8.86,48.59,10.66,54.54,12.22,21.68,5.68,21.44,6.78,52.73,15.39,33,9.09,42.66,10.45,53.63,10.41a159.72,159.72,0,0,0,34-4.07c8.46-1.93,14.36-4,29.36-9.52,22.56-8.34,39.85-15,43.74-16.51,12.23-4.7,30-11.25,52.28-18.46Z"/></g><g id="Righe_foglia"><path class="cls-10" d="M423,439.84h0v0h0l0,.07h0l0-.07Z"/><path class="cls-10" d="M423,439.77l0,.05v0Z"/><path class="cls-10" d="M423.05,439.77l0,0v0Z"/><path class="cls-10" d="M423,439.84h0v.08h0Z"/><path class="cls-10" d="M436.73,375c9.11-42.39,11.1-50.35,12.83-57,5.94-22.69,7.59-24.82,15.12-51.36q-21.09,21.8-42.17,43.6L382,268.41l40.47,41.89q21.08-21.81,42.17-43.6c.86-3.05,1.8-6.39,2.83-10.15C478.12,218,479.7,206.78,479.66,194a173.56,173.56,0,0,0-1.52-21.38l-55.83,58.5-54.69-56.61A169.67,169.67,0,0,0,366.34,194c0,12.8,1.54,24,12.15,62.57,10,36.5,11.33,36.22,17.95,61.51,1.76,6.73,3.79,14.84,13.31,59.19l12.5,12.95Z"/><path class="cls-10" d="M423,439.8h0v0h0Z"/><path class="cls-10" d="M423,439.84l0,0,0,0,0,0,0,0v0Z"/><path class="cls-10" d="M423,439.91h0v-.08h0Z"/><path class="cls-10" d="M423,439.77v0c2.91-13.92,7.12-33.9,12.28-58q.75-3.46,1.43-6.67L422.25,390.2l-12.5-12.95c.3,1.44.62,2.92.95,4.44,5.16,24.13,9.37,44.11,12.28,58v0l0,0Z"/><path class="cls-10" d="M423,439.82v0h0l0,0Z"/><path class="cls-10" d="M374.61,471.42c-30,19.38-35.9,22.92-40.86,25.82C316.54,507.31,314.27,507.6,293.8,519l48.53-1.13L341.14,574c14.2-25.14,13.72-26.37,24.54-44.87,2.77-4.73,6.12-10.33,23.29-36.93l.37-21.17Z"/><path class="cls-10" d="M422.83,440.07c-10.12,6.61-24.65,16.1-42.27,27.5l-5.95,3.85,14.73-.35L389,492.24c1.95-3,4.06-6.29,6.39-9.88,11.39-17.61,20.88-32.15,27.49-42.26L423,440l-.08,0L423,440h0Z"/><path class="cls-10" d="M293.8,519l-7.81,4.4c-29.54,16.79-37.24,22.59-44.91,30.31a146,146,0,0,0-11.75,13.53l65.4-1.53-1.2,69.49a149.81,149.81,0,0,0,15.66-13.38c7.72-7.67,13.52-15.37,30.31-44.91l1.64-2.89,1.19-56.15Z"/><path class="cls-10" d="M229.44,392.88a89.64,89.64,0,0,0-17.11-1.52,159.72,159.72,0,0,0-34,4.07c-1.59.36-3.09.73-4.57,1.12l32.76,42.08-34.09,44.31c1.93.53,3.84,1,5.9,1.48a159.72,159.72,0,0,0,34,4.07,88.11,88.11,0,0,0,15.53-1.25l37.3-48.48Z"/><path class="cls-10" d="M304.21,413.13c-9.64-2.89-15.92-5.21-38.25-11.36-17.53-4.83-28.48-7.47-36.52-8.89l35.72,45.88-37.3,48.48c8.19-1.34,19.39-4,38.1-9.16,20.4-5.61,27.4-8,35.81-10.61L324,438.56Z"/><path class="cls-10" d="M422.85,440l.09,0-.09,0H423c-11.5-2.41-27.86-5.85-47.57-10.07l6.47,8.32-9.64,12.53,1-.22c20.67-4.42,37.79-8,49.71-10.52h-.09Z"/><path class="cls-10" d="M375.4,429.84l-2.17-.46c-41.36-8.86-48.59-10.66-54.54-12.22-6.2-1.63-10.61-2.87-14.48-4L324,438.56l-22.25,28.91c4.49-1.38,9.38-2.8,16.92-4.78,5.9-1.54,13.08-3.33,53.54-12l9.64-12.53Z"/><path class="cls-10" d="M423,440h0Z"/><polygon class="cls-10" points="422.95 439.95 422.94 439.95 422.95 439.95 422.95 439.95 422.95 439.95"/><path class="cls-10" d="M341.24,305.85l-1.7-3C322.76,273.32,317,265.62,309.23,258a148.81,148.81,0,0,0-15.59-13.33l1.15,66.31L227,309.35a152.09,152.09,0,0,0,14.16,16.71c7.67,7.71,15.38,13.52,44.91,30.3l1.57.9,54.79,1.51Q341.81,332.31,341.24,305.85Z"/><path class="cls-10" d="M423,439.82l0-.05,0,0v0l-.08-.08c-6.62-10.11-16.1-24.65-27.5-42.26-2.3-3.54-4.39-6.78-6.32-9.77l.31,17.92-19.77-.46,11,7.1c17.61,11.4,32.15,20.88,42.26,27.5l.11.11Z"/><path class="cls-10" d="M389.08,387.66c-17.22-26.7-20.58-32.3-23.35-37-10.81-18.47-10.35-19.73-24.49-44.77q.57,26.46,1.15,52.92l-54.79-1.51c26.42,15,27.38,14.28,46.2,25.29,4.66,2.73,10.17,6,35.82,22.57l19.77.46Z"/><path class="cls-10" d="M423,439.82h0l0,0h0Z"/><path class="cls-10" d="M423,439.8h0l0,0v0Z"/><path class="cls-10" d="M423,439.84l0,0h0Z"/><path class="cls-10" d="M455.66,490.11c18.36,28.43,21.82,34.21,24.66,39.06,10.37,17.73,10.37,19.61,22.85,41.86q-.57-26.25-1.13-52.5l52.34,1.71c-22.51-12.63-24.33-12.59-42.13-23-4.92-2.88-10.78-6.39-40.24-25.42l-16.79-.29Z"/><path class="cls-10" d="M503.17,571c1,1.83,2.12,3.78,3.33,5.9,16.79,29.54,22.59,37.24,30.31,44.91a148.81,148.81,0,0,0,14.66,12.63l-1.59-68.34,66.82,1.16a148.35,148.35,0,0,0-11.78-13.56c-7.67-7.72-15.37-13.52-44.91-30.31l-5.63-3.18L502,518.53Q502.61,544.78,503.17,571Z"/><path class="cls-10" d="M615.5,393.07c-7.94,1.46-18.68,4.08-35.46,8.7-23.24,6.4-29.09,8.65-39.44,11.71L521,438.65,542.84,467c9.08,2.75,15.69,5.12,37.2,11,17.8,4.9,28.8,7.55,36.88,8.95l-37.07-48.18Z"/><path class="cls-10" d="M671.43,396.36c-1.24-.32-2.49-.63-3.81-.93a159.72,159.72,0,0,0-34-4.07,91.27,91.27,0,0,0-18.17,1.71l-35.65,45.78L616.92,487a89,89,0,0,0,16.75,1.46,159.72,159.72,0,0,0,34-4.07c1.75-.4,3.39-.8,5-1.24l-34.2-44.46Z"/><path class="cls-10" d="M540.6,413.48c-3.59,1.06-7.71,2.22-13.29,3.68-5.95,1.56-13.18,3.36-54.54,12.22l-3.78.81-5,8,7.49,12,1.31.28c41.36,8.86,48.59,10.67,54.54,12.22,6.77,1.78,11.41,3.1,15.53,4.35L521,438.65Z"/><path class="cls-10" d="M423,440h0Z"/><path class="cls-10" d="M469,430.19c-19,4.06-34.77,7.38-46,9.72h.12l-.09,0,.09,0h-.09c11.67,2.44,28.32,5.95,48.4,10.24l-7.49-12Z"/><path class="cls-10" d="M423.05,439.94h.1l-.09,0,.09,0H423v0h0v0h-.13l.09,0-.09,0h.2Z"/><path class="cls-10" d="M423,439.93v0h0Z"/><path class="cls-10" d="M423,439.91h0v0Z"/><polygon class="cls-10" points="423.05 439.95 423.05 439.95 423.06 439.95 423.05 439.95 423.05 439.95"/><path class="cls-10" d="M476.77,404.87c25.32-16.33,30.79-19.61,35.43-22.32,18.85-11,19.78-10.33,46.34-25.38l-56.44,1.07,1.15-49.33-1.15,49.33,56.44-1.07,1.43-.81c29.53-16.78,37.24-22.59,44.91-30.3A152.42,152.42,0,0,0,619,309.45l-69,1.19,1.52-65.35A148.15,148.15,0,0,0,536.77,258c-7.72,7.67-13.53,15.37-30.31,44.9-15.9,28-15,28.59-26.19,47.77-2.83,4.85-6.29,10.62-24.62,39l-.37,15.61Z"/><path class="cls-10" d="M423.05,439.77l0,.05h0l.11-.11c10.11-6.62,24.65-16.1,42.26-27.5l11.38-7.35-21.49.37.37-15.61c-1.58,2.43-3.25,5-5,7.8-11.4,17.61-20.88,32.15-27.5,42.26l-.08.08v0Z"/><path class="cls-10" d="M423,439.82l0,0h0Z"/><path class="cls-10" d="M423,439.8l0,0h0l0,0Z"/><path class="cls-10" d="M423,439.8h0v0l0,0Z"/><polygon class="cls-10" points="423 439.8 423 439.8 423 439.8 423 439.8 423 439.8"/></g><g id="Bordo"><line class="cls-10" x1="422.78" y1="8.98" x2="422.95" y2="440.94"/><line class="cls-10" x1="682.54" y1="180.28" x2="463.02" y2="396.23"/><line class="cls-10" x1="164.84" y1="181.7" x2="423.77" y2="439.68"/><line class="cls-10" x1="788.68" y1="439.93" x2="56.79" y2="439.93"/><line class="cls-10" x1="163.42" y1="699.5" x2="392.76" y2="467.04"/><line class="cls-10" x1="679.49" y1="696.27" x2="422.22" y2="437.32"/></g><g id="contorno"><path class="cls-11" d="M474.9,154.38c-2.24-9.87-4.63-16.75-11.1-34.25-9.73-26.32-17.51-46.49-19.26-51-5.48-14.27-13.12-35-21.54-61-8.42,26-16.06,46.72-21.54,61-1.75,4.53-9.53,24.7-19.26,51-6.47,17.5-8.86,24.38-11.1,34.25a187.14,187.14,0,0,0-4.76,39.6c0,12.8,1.54,24,12.15,62.57,10,36.5,11.33,36.22,17.95,61.51,1.82,6.95,3.92,15.37,14.26,63.63,5.16,24.13,9.37,44.11,12.28,58v.21l0-.11,0,.11v-.21c2.91-13.92,7.12-33.9,12.28-58,10.34-48.26,12.44-56.68,14.26-63.63,6.62-25.29,7.91-25,17.95-61.51C478.12,218,479.7,206.78,479.66,194A187.14,187.14,0,0,0,474.9,154.38Z"/><g id="Livello_2-2" data-name="Livello 2"><path class="cls-11" d="M423,440l-.08,0,.05-.08-.12.13c-10.12,6.61-24.65,16.1-42.27,27.5-35.21,22.79-41.54,26.59-46.81,29.67C314.57,508.46,314,507.53,286,523.42c-29.54,16.79-37.24,22.59-44.91,30.31a158.47,158.47,0,0,0-21,26.66c-4.58,7.29-7.28,12.86-13.91,27.26-10,21.67-17.42,38.47-19.09,42.25-5.28,11.87-13.15,28.92-23.71,49.6,20.68-10.56,37.73-18.43,49.61-23.71,3.77-1.67,20.57-9.11,42.24-19.09,14.4-6.63,20-9.33,27.26-13.91a158.47,158.47,0,0,0,26.66-20.95c7.72-7.67,13.52-15.37,30.31-44.91,15.9-28,15-28.58,26.18-47.76,3.08-5.27,6.88-11.6,29.68-46.81,11.39-17.61,20.88-32.15,27.49-42.26Z"/><path class="cls-11" d="M423.06,439.93l.09,0H423c-11.92-2.5-29.05-6.1-49.74-10.53-41.36-8.86-48.59-10.66-54.54-12.22-21.68-5.68-21.44-6.78-52.73-15.39-33-9.09-42.66-10.45-53.63-10.41a159.72,159.72,0,0,0-34,4.07c-8.46,1.93-14.36,4-29.36,9.52-22.56,8.34-39.85,15-43.74,16.51-12.23,4.7-30,11.25-52.28,18.47,22.28,7.21,40.05,13.76,52.28,18.46,3.89,1.5,21.18,8.17,43.74,16.51,15,5.54,20.9,7.59,29.36,9.52a159.72,159.72,0,0,0,34,4.07c11,0,20.6-1.31,53.63-10.41,31.29-8.61,31.05-9.71,52.73-15.39,5.95-1.55,13.18-3.36,54.54-12.22,20.69-4.43,37.82-8,49.74-10.52h.18Z"/><path class="cls-11" d="M423,439.77l.07.05-.12-.13c-6.62-10.11-16.1-24.65-27.5-42.26-22.79-35.22-26.59-41.54-29.67-46.81-11.23-19.18-10.29-19.79-26.19-47.77C322.76,273.32,317,265.62,309.23,258A158,158,0,0,0,282.57,237c-7.28-4.58-12.85-7.28-27.25-13.91-21.68-10-38.48-17.42-42.25-19.1-11.88-5.28-28.92-13.14-49.61-23.71C174,201,181.89,218,187.17,229.89c1.68,3.77,9.12,20.58,19.1,42.25,6.63,14.4,9.32,20,13.91,27.26a159.1,159.1,0,0,0,20.94,26.66c7.67,7.71,15.38,13.52,44.91,30.3,28,15.9,28.58,15,47.77,26.19,5.26,3.08,11.59,6.88,46.81,29.67,17.61,11.4,32.15,20.88,42.26,27.5l.13.12Z"/><path class="cls-11" d="M658.87,649.9c-1.67-3.78-9.12-20.58-19.09-42.25-6.63-14.4-9.33-20-13.91-27.26a158.47,158.47,0,0,0-21-26.66c-7.67-7.72-15.37-13.52-44.91-30.31-28-15.89-28.58-15-47.76-26.18-5.27-3.08-11.6-6.88-46.81-29.67-17.62-11.4-32.15-20.89-42.27-27.5l-.12-.13.05.08-.08,0,.13.13c6.61,10.11,16.1,24.65,27.49,42.26,22.8,35.21,26.6,41.54,29.68,46.81,11.22,19.18,10.28,19.79,26.18,47.76,16.79,29.54,22.59,37.24,30.31,44.91a158.47,158.47,0,0,0,26.66,20.95c7.28,4.58,12.86,7.28,27.26,13.91,21.67,10,38.47,17.42,42.24,19.09,11.88,5.28,28.93,13.15,49.61,23.71C672,678.82,664.15,661.77,658.87,649.9Z"/><path class="cls-11" d="M740.72,421.46C736.83,420,719.54,413.29,697,405c-15-5.54-20.9-7.59-29.36-9.52a159.72,159.72,0,0,0-34-4.07c-11,0-20.6,1.32-53.63,10.41-31.29,8.61-31,9.71-52.73,15.39-5.95,1.56-13.18,3.36-54.54,12.22-20.69,4.43-37.82,8-49.74,10.53h-.18l.09,0-.09,0H423c11.92,2.49,29.05,6.09,49.74,10.52,41.36,8.86,48.59,10.67,54.54,12.22,21.68,5.68,21.44,6.78,52.73,15.39,33,9.1,42.66,10.45,53.63,10.41a159.72,159.72,0,0,0,34-4.07c8.46-1.93,14.36-4,29.36-9.52,22.56-8.34,39.85-15,43.74-16.51,12.23-4.7,30-11.25,52.28-18.46C770.72,432.71,753,426.16,740.72,421.46Z"/><path class="cls-11" d="M632.93,204c-3.77,1.68-20.57,9.12-42.25,19.1-14.4,6.63-20,9.33-27.25,13.91A158,158,0,0,0,536.77,258c-7.72,7.67-13.53,15.37-30.31,44.9-15.9,28-15,28.59-26.19,47.77-3.08,5.27-6.88,11.59-29.67,46.81-11.4,17.61-20.88,32.15-27.5,42.26l-.12.13.07-.05-.05.07.13-.12c10.11-6.62,24.65-16.1,42.26-27.5,35.22-22.79,41.55-26.59,46.81-29.67C531.39,371.33,532,372.26,560,356.36c29.53-16.78,37.24-22.59,44.91-30.3a159.1,159.1,0,0,0,20.94-26.66c4.59-7.29,7.28-12.86,13.91-27.26,10-21.67,17.42-38.48,19.1-42.25C664.11,218,672,201,682.54,180.28,661.85,190.85,644.81,198.71,632.93,204Z"/></g></g></g><g id="Occhio.DEF"><path id="sfondo_bianco" data-name="sfondo bianco" class="cls-12" d="M560.86,441.11a8.47,8.47,0,0,0,1-1.92,8.47,8.47,0,0,0-1-1.92,42.94,42.94,0,0,0-3.2-3.71c-1.43-1.56-2.89-3.09-4.36-4.62a8.71,8.71,0,0,1-2.21-1.85q-7.9-8.29-16.45-15.8a259.31,259.31,0,0,0-24-18.36c-1.79-1.22-3.6-2.4-5.42-3.56l-2.67-1.65a167.37,167.37,0,0,0-48.61-20.34,131.17,131.17,0,0,0-27.88-3.48h-.52l-1.25,0h-1a123.71,123.71,0,0,0-13.74,1A153.36,153.36,0,0,0,370.85,375c-33.83,13.8-61.41,35.76-84.29,63.81-.11.14-.22.27-.32.41.1.14.21.27.32.41,22.88,28,50.46,50,84.29,63.8a153,153,0,0,0,38.69,10.06,121.2,121.2,0,0,0,13.74,1h1l1.25,0h.52A131.17,131.17,0,0,0,453.94,511c17.36-4.07,33.43-11.16,48.61-20.34.9-.55,1.79-1.1,2.67-1.66,1.82-1.15,3.63-2.34,5.42-3.55a262.86,262.86,0,0,0,24-18.36q8.55-7.5,16.45-15.8a8.51,8.51,0,0,1,2.21-1.85c1.47-1.53,2.93-3.07,4.36-4.63A41.37,41.37,0,0,0,560.86,441.11Z"/><circle class="cls-13" cx="423" cy="439.91" r="77"/><circle class="cls-14" cx="377.01" cy="474.84" r="17.72"/><circle class="cls-14" cx="459.02" cy="411.37" r="28.66"/><circle class="cls-15" cx="423" cy="439.91" r="55.68"/><g id="spirale"><path class="cls-8" d="M377,451.58a47.71,47.71,0,0,0,16,26.62l3.16,2.46a48.39,48.39,0,0,0,14.5,6.92c4.23,1.36,12.85,2.46,18.18,1.53a17.87,17.87,0,0,0-3.23-.66A49.25,49.25,0,0,1,411,483c-.45-.27-.89-.4-1.33-.69l-2.59-1.67a15.9,15.9,0,0,1-1.28-1,45.41,45.41,0,0,1-8.94-8.56c-5.8-7.21-10.2-17.89-10-27.34a34.39,34.39,0,0,1,2.53-12.93c.58-1.53,1.32-2.73,2-4.06L393,424.2c.34-.44.58-.78,1-1.27a33.83,33.83,0,0,1,12.72-10.07c9.11-4.05,18.94-4,26.86,1.54a26,26,0,0,1,8.5,9.43c2.33,4.76,3.52,9.68,2.56,14.75a21.57,21.57,0,0,1-18.14,17.18,18.86,18.86,0,0,1-12.59-3.06c-.46-.33-.61-.52-1.18-.93a20.59,20.59,0,0,1-5.11-6.24c-.58-1.09-.91-2.39-1.43-3.39-.47,2.39,1.61,7.49,2.82,9.51a21.39,21.39,0,0,0,2.56,3.38c4.74,5.28,12.31,7.57,19.43,6.62a28.61,28.61,0,0,0,20.16-13.09,17.84,17.84,0,0,0,1-1.7c.29-.62.6-1.15.91-1.79,6.56-14.05.45-30.22-9.68-39.15-.59-.51-1-.81-1.55-1.28l-2.44-1.73a32,32,0,0,0-6.15-3.34c-13.26-5.62-28.27-2.84-39.9,5.54-5.28,3.8-7.44,7.22-10.66,12.09-2.48,3.75-4.95,10.88-5.8,15.23A47.6,47.6,0,0,0,377,451.58Z"/><path class="cls-16" d="M428.87,489.11c-2.78.29-22.53,2-38.23-13.07-1.8-1.72-15.38-15.22-14.65-36.22.16-4.33.94-19.69,13.49-31.54,2-1.87,14-12.86,31.42-11.57a39.25,39.25,0,0,1,20.89,7.93,36.94,36.94,0,0,1,12.8,19.51,30.74,30.74,0,0,1,.5,14.69,29.63,29.63,0,0,1-10.46,16.91c-2.16,1.69-8.32,6.38-17.17,6.1-2.29-.08-9.32-.3-15.06-5.88a21.58,21.58,0,0,1-6.29-13.83,19.69,19.69,0,0,0,21.2,16.8,23.36,23.36,0,0,0,14.22-6,26.15,26.15,0,0,0,8.41-14.37,28.33,28.33,0,0,0-.61-14.06,29.42,29.42,0,0,0-11-15.14,31.3,31.3,0,0,0-17.12-5.65c-13.72-.78-23.43,6.8-25.23,8.25-12.45,10.08-13.75,24.71-14.06,28.13-1.65,18.54,9.46,31.39,11.62,33.78C407.23,489.12,426,489.15,428.87,489.11Z"/><path class="cls-9" d="M469.12,426.66a47.82,47.82,0,0,0-16-26.62L450,397.58a48.67,48.67,0,0,0-14.49-6.91c-4.24-1.36-12.86-2.46-18.19-1.53a19,19,0,0,0,3.23.66,49.41,49.41,0,0,1,14.64,5.4c.45.27.89.4,1.33.7l2.59,1.67a12.29,12.29,0,0,1,1.28,1,45.64,45.64,0,0,1,8.94,8.55c5.81,7.22,10.21,17.9,10,27.34a34.25,34.25,0,0,1-2.53,12.94c-.58,1.52-1.32,2.73-2,4.06L453.2,454c-.35.45-.59.78-1,1.28a33.9,33.9,0,0,1-12.72,10.06c-9.11,4.05-18.94,4-26.86-1.53a26.08,26.08,0,0,1-8.5-9.43c-2.33-4.76-3.52-9.69-2.56-14.75a21.58,21.58,0,0,1,18.15-17.19,18.91,18.91,0,0,1,12.58,3.07c.46.33.61.51,1.18.93a20.21,20.21,0,0,1,5.11,6.24c.59,1.09.91,2.39,1.43,3.38.47-2.38-1.61-7.49-2.82-9.5a20.9,20.9,0,0,0-2.56-3.39c-4.74-5.27-12.31-7.56-19.42-6.61a28.6,28.6,0,0,0-20.16,13.08,17.3,17.3,0,0,0-1,1.71c-.28.61-.6,1.14-.9,1.79-6.57,14.05-.46,30.22,9.68,39.14.58.52,1,.81,1.55,1.28l2.43,1.73a32.3,32.3,0,0,0,6.15,3.34c13.27,5.63,28.27,2.84,39.9-5.54,5.28-3.8,7.44-7.22,10.67-12.09,2.48-3.74,4.94-10.87,5.79-15.22A47.47,47.47,0,0,0,469.12,426.66Z"/><path class="cls-16" d="M417.28,389.14c2.78-.29,22.53-2,38.23,13.06,1.8,1.73,15.39,15.22,14.65,36.23-.15,4.33-.94,19.69-13.49,31.53-2,1.88-14,12.86-31.42,11.58a39.13,39.13,0,0,1-20.88-7.94,36.88,36.88,0,0,1-12.81-19.51,31,31,0,0,1-.5-14.69,29.64,29.64,0,0,1,10.46-16.9c2.16-1.7,8.32-6.39,17.17-6.1,2.29.07,9.32.3,15.06,5.87A21.62,21.62,0,0,1,440,436.1a20.25,20.25,0,0,0-7.14-12.52,20.53,20.53,0,0,0-14.06-4.28,23.32,23.32,0,0,0-14.22,6,26.19,26.19,0,0,0-8.4,14.36,28.12,28.12,0,0,0,.61,14.07,29.38,29.38,0,0,0,11,15.13A31.43,31.43,0,0,0,425,474.49c13.71.77,23.42-6.8,25.22-8.26,12.45-10.07,13.76-24.7,14.06-28.12,1.66-18.55-9.46-31.4-11.62-33.79C438.92,389.13,420.18,389.09,417.28,389.14Z"/></g><g id="OMBRA" class="cls-17"><path d="M289,439.45c12.74-10.65,60.5-48,132-48.21,73.07-.23,121.76,38.39,134.22,48.92l9.17-8a200.42,200.42,0,0,0-68.18-55.95c-15.6-7.77-40.49-19.8-74.59-19.56-31.64.22-54.71,10.88-69.1,17.73-36.81,17.51-60.19,43-73.07,59.92Z"/></g><circle class="cls-18" cx="423.16" cy="438.36" r="8.41" transform="translate(-100.7 749.48) rotate(-76.72)"/><g id="Livello_46" data-name="Livello 46" class="cls-19"><circle class="cls-12" cx="423.18" cy="438.32" r="5.97"/></g><path class="cls-20" d="M580,438.22a17.41,17.41,0,0,0-2-2.81c-25.93-32-57.18-57.09-95.5-72.84A172.3,172.3,0,0,0,438.7,351.1a137.21,137.21,0,0,0-15.7-1.19h0a134.83,134.83,0,0,0-15.7,1.18,172.74,172.74,0,0,0-43.84,11.48c-38.32,15.75-69.57,40.81-95.5,72.83a17.49,17.49,0,0,0-1.95,2.82,10.14,10.14,0,0,0-.51,1.13h0a11.4,11.4,0,0,0,.51,1.14,17.55,17.55,0,0,0,2,2.82c25.92,32,57.17,57.08,95.5,72.83a172.67,172.67,0,0,0,43.83,11.48A137.23,137.23,0,0,0,423,528.8h0a135.14,135.14,0,0,0,15.7-1.19,172.23,172.23,0,0,0,43.83-11.47c38.33-15.75,69.58-40.81,95.5-72.83a18,18,0,0,0,2-2.82,11.4,11.4,0,0,0,.51-1.14h0A9.5,9.5,0,0,0,580,438.22Zm-22.93,1.14-.07.09c-22.43,27.5-49.45,49-82.6,62.53a149.74,149.74,0,0,1-37.92,9.86,118.42,118.42,0,0,1-13.47,1h0a120.91,120.91,0,0,1-13.47-1A150.14,150.14,0,0,1,371.61,502c-33.15-13.52-60.17-35-82.6-62.53a.61.61,0,0,0-.07-.1h0l.07-.09c22.42-27.49,49.45-49,82.6-62.53a150,150,0,0,1,37.92-9.85,120.91,120.91,0,0,1,13.47-1h0a116.3,116.3,0,0,1,13.47,1,150,150,0,0,1,37.92,9.85c33.15,13.52,60.18,35,82.6,62.53l.07.09Z"/></g><g id="Sfere"><circle class="cls-21" cx="423" cy="121.81" r="30"/><circle class="cls-22" cx="690.5" cy="440.25" r="27.5" transform="translate(103.38 1011.13) rotate(-76.72)"/><circle class="cls-23" cx="690.5" cy="440.25" r="21" transform="translate(103.38 1011.13) rotate(-76.72)"/><circle class="cls-24" cx="242.17" cy="258.74" r="30"/><circle class="cls-25" cx="242.17" cy="258.74" r="22.5" transform="translate(-65.29 434.98) rotate(-76.72)"/><circle class="cls-26" cx="155.5" cy="440.31" r="27.5" transform="translate(-310.98 461.55) rotate(-73.15)"/><circle class="cls-27" cx="155.5" cy="440.31" r="21" transform="translate(-310.98 461.55) rotate(-73.15)"/><circle class="cls-28" cx="246.22" cy="616.72" r="30" transform="translate(-415.39 673.66) rotate(-73.15)"/><circle class="cls-29" cx="246.22" cy="616.72" r="22.5" transform="translate(-415.39 673.66) rotate(-73.15)"/><circle class="cls-30" cx="600.02" cy="617.66" r="30" transform="translate(-240.84 803.34) rotate(-58.28)"/><circle class="cls-31" cx="600.02" cy="617.66" r="22.5" transform="translate(-240.84 803.34) rotate(-58.28)"/><circle class="cls-32" cx="602.78" cy="259.4" r="30"/><circle class="cls-33" cx="602.78" cy="259.4" r="22.5"/><circle class="cls-34" cx="423" cy="121.81" r="22.5"/></g><g id="Punti_Luce"><circle class="cls-35" cx="423" cy="128.81" r="15"/><circle class="cls-36" cx="597.02" cy="264.01" r="15"/><circle class="cls-37" cx="247.24" cy="263.21" r="15"/><circle class="cls-37" cx="161.31" cy="439.81" r="15"/><circle class="cls-38" cx="251.07" cy="611.45" r="15"/><circle class="cls-36" cx="595.52" cy="611.65" r="15"/><circle class="cls-36" cx="684.4" cy="439.97" r="15"/></g></g></svg>